<svg width="161" height="24" viewBox="0 0 161 24" fill="none" xmlns="http://www.w3.org/2000/svg">
<rect x="0.250468" y="0.250468" width="37.4991" height="23.4991" rx="0.751403" fill="white" stroke="#E2E8F0" strokeWidth="0.500935"/>
<path fillRule="evenodd" clipRule="evenodd" d="M11.536 16.2582H9.23396L7.50769 10.1924C7.42576 9.91333 7.25178 9.66665 6.99587 9.55039C6.35722 9.25822 5.65347 9.02569 4.88574 8.90842V8.67488H8.59419C9.106 8.67488 9.48987 9.02569 9.55385 9.43312L10.4495 13.8086L12.7505 8.67488H14.9886L11.536 16.2582ZM16.2682 16.2582H14.0941L15.8843 8.67488H18.0584L16.2682 16.2582ZM20.8711 10.7757C20.9351 10.3673 21.319 10.1337 21.7668 10.1337C22.4706 10.0751 23.2372 10.1924 23.8769 10.4835L24.2608 8.85081C23.621 8.61727 22.9173 8.5 22.2786 8.5C20.1685 8.5 18.633 9.5504 18.633 11.0082C18.633 12.1173 19.7207 12.6996 20.4884 13.0504C21.319 13.4002 21.6389 13.6337 21.5749 13.9835C21.5749 14.5082 20.9351 14.7418 20.2965 14.7418C19.5287 14.7418 18.761 14.5669 18.0584 14.2747L17.6745 15.9084C18.4422 16.1996 19.2728 16.3169 20.0405 16.3169C22.4066 16.3745 23.8769 15.3251 23.8769 13.75C23.8769 11.7665 20.8711 11.6502 20.8711 10.7757ZM31.4857 16.2582L29.7594 8.67488H27.9052C27.5214 8.67488 27.1375 8.90842 27.0095 9.25822L23.8129 16.2582H26.051L26.4977 15.1502H29.2476L29.5035 16.2582H31.4857ZM28.2252 10.7171L28.8639 13.5751H27.0736L28.2252 10.7171Z" fill="#172B85"/>
<rect x="41.2505" y="0.250468" width="37.4991" height="23.4991" rx="0.751403" fill="white" stroke="#E2E8F0" strokeWidth="0.500935"/>
<path fillRule="evenodd" clipRule="evenodd" d="M65.0765 18.806C69.1682 18.806 72.4852 15.7154 72.4852 11.903C72.4852 8.09057 69.1682 5 65.0765 5C63.2427 5 61.5646 5.62074 60.2709 6.64901C58.9772 5.62074 57.2991 5 55.4653 5C51.3736 5 48.0566 8.09057 48.0566 11.903C48.0566 15.7154 51.3736 18.806 55.4653 18.806C57.2991 18.806 58.9772 18.1852 60.2709 17.157C61.5646 18.1852 63.2428 18.806 65.0765 18.806Z" fill="#ED0006"/>
<path fillRule="evenodd" clipRule="evenodd" d="M60.2705 17.1569C61.8635 15.8908 62.8736 14.0068 62.8736 11.903C62.8736 9.79915 61.8635 7.91514 60.2705 6.64901C61.5642 5.62074 63.2424 4.99999 65.0761 4.99999C69.1678 4.99999 72.4848 8.09056 72.4848 11.903C72.4848 15.7154 69.1678 18.806 65.0761 18.806C63.2424 18.806 61.5642 18.1852 60.2705 17.1569Z" fill="#F9A000"/>
<path fillRule="evenodd" clipRule="evenodd" d="M60.271 17.157C61.864 15.8909 62.8741 14.0069 62.8741 11.903C62.8741 9.79921 61.864 7.9152 60.271 6.64907C58.6781 7.9152 57.668 9.79921 57.668 11.903C57.668 14.0069 58.6781 15.8909 60.271 17.157Z" fill="#FF5E00"/>
<rect x="82.2505" y="0.250468" width="37.4991" height="23.4991" rx="0.751403" fill="white" stroke="#E2E8F0" strokeWidth="0.500935"/>
<path d="M97.9971 23.5L119.44 17.75V22.9991C119.44 23.2757 119.216 23.5 118.939 23.5H97.9971Z" fill="#FD6020"/>
<path fillRule="evenodd" clipRule="evenodd" d="M115.37 9.61087C116.55 9.61087 117.199 10.0944 117.199 11.0078C117.258 11.7062 116.727 12.2972 116.019 12.4047L117.612 14.3926H116.373L115.016 12.4584H114.898V14.3926H113.896V9.61087H115.37ZM114.898 11.8137H115.193C115.842 11.8137 116.137 11.5451 116.137 11.0615C116.137 10.6317 115.842 10.3631 115.193 10.3631H114.898V11.8137ZM110.415 14.3925H113.247V13.5866H111.418V12.2972H113.188V11.4913H111.418V10.4167H113.247V9.61084H110.415V14.3925ZM107.466 12.8345L106.11 9.61084H105.048L107.23 14.5H107.761L109.944 9.61084H108.882L107.466 12.8345ZM95.4924 12.0286C95.4924 13.3717 96.6721 14.5 98.1467 14.5C98.6186 14.5 99.0314 14.3926 99.4443 14.2314V13.1568C99.1494 13.4792 98.7365 13.6941 98.2646 13.6941C97.3209 13.6941 96.5541 13.0494 96.5541 12.1898V12.0823C96.4951 11.2227 97.2619 10.4705 98.2057 10.4168C98.6775 10.4168 99.1494 10.6317 99.4443 10.954V9.8795C99.0904 9.66459 98.6186 9.61086 98.2057 9.61086C96.6721 9.50341 95.4924 10.6317 95.4924 12.0286ZM93.6638 11.4376C93.0739 11.2227 92.897 11.1152 92.897 10.8466C92.956 10.5242 93.2509 10.2556 93.6048 10.3093C93.8997 10.3093 94.1946 10.4705 94.4306 10.6854L94.9614 10.0407C94.5486 9.71831 94.0177 9.5034 93.4868 9.5034C92.661 9.44967 91.9532 10.0407 91.8943 10.7928V10.8466C91.8943 11.4913 92.1892 11.8674 93.1329 12.136C93.3689 12.1897 93.6048 12.2972 93.8407 12.4047C94.0177 12.5121 94.1357 12.6733 94.1357 12.8882C94.1357 13.2643 93.7818 13.5866 93.4278 13.5866H93.3689C92.897 13.5866 92.4841 13.318 92.3071 12.9419L91.6583 13.5329C92.0122 14.1239 92.72 14.4463 93.4278 14.4463C94.3716 14.5 95.1384 13.8553 95.1974 12.9956V12.8345C95.1384 12.1897 94.8435 11.8674 93.6638 11.4376ZM90.2428 14.3925H91.2456V9.61084H90.2428V14.3925ZM85.583 9.61087H87.0576H87.3525C88.7682 9.66459 89.8889 10.7391 89.8299 12.0286C89.8299 12.727 89.476 13.3718 88.8861 13.8553C88.3553 14.2314 87.7064 14.4463 87.0576 14.3926H85.583V9.61087ZM86.8806 13.5867C87.3525 13.6404 87.8834 13.4792 88.2373 13.2106C88.5912 12.8882 88.7681 12.4584 88.7681 11.9749C88.7681 11.5451 88.5912 11.1153 88.2373 10.7929C87.8834 10.5243 87.3525 10.3631 86.8806 10.4168H86.5857V13.5867H86.8806Z" fill="black"/>
<path fillRule="evenodd" clipRule="evenodd" d="M102.453 9.50001C100.978 9.50001 99.7393 10.5745 99.7393 11.9714C99.7393 13.3146 100.919 14.4429 102.453 14.4966C103.986 14.5503 105.166 13.4221 105.225 12.0252C105.166 10.6283 103.986 9.50001 102.453 9.50001V9.50001Z" fill="#FD6020"/>
<rect x="123.25" y="0.250468" width="37.4991" height="23.4991" rx="0.751403" fill="#1F72CD" stroke="#E2E8F0" strokeWidth="0.500935"/>
<path fillRule="evenodd" clipRule="evenodd" d="M129.812 8.5L126.257 15.7467H130.513L131.041 14.5913H132.247L132.775 15.7467H137.459V14.8649L137.877 15.7467H140.3L140.718 14.8462V15.7467H150.461L151.646 14.6213L152.755 15.7467L157.76 15.7561L154.193 12.1436L157.76 8.5H152.833L151.68 9.60462L150.605 8.5H140.006L139.095 10.3704L138.164 8.5H133.917V9.35185L133.444 8.5H129.812ZM144.362 9.52904H149.957L151.669 11.2316L153.435 9.52904H155.146L152.546 12.1426L155.146 14.726H153.357L151.646 13.0036L149.871 14.726H144.362V9.52904ZM145.744 11.555V10.6057V10.6048H149.235L150.758 12.1229L149.168 13.6493H145.744V12.613H148.796V11.555H145.744ZM130.636 9.52904H132.711L135.069 14.4431V9.52904H137.342L139.163 13.0524L140.842 9.52904H143.103V14.7291H141.727L141.716 10.6544L139.71 14.7291H138.479L136.462 10.6544V14.7291H133.631L133.094 13.5633H130.195L129.659 14.728H128.143L130.636 9.52904ZM130.69 12.4856L131.645 10.4089L132.599 12.4856H130.69Z" fill="white"/>
</svg>
